<?xml version="1.0" standalone="no"?>
<!DOCTYPE svg PUBLIC "-//W3C//DTD SVG 20010904//EN"
 "http://www.w3.org/TR/2001/REC-SVG-20010904/DTD/svg10.dtd">
<svg version="1.0" xmlns="http://www.w3.org/2000/svg"
 width="600.000000pt" height="300.000000pt" viewBox="0 0 600.000000 300.000000"
 preserveAspectRatio="xMidYMid meet">

<g transform="translate(0.000000,300.000000) scale(0.100000,-0.100000)"
fill="#000000" stroke="none">
<path d="M0 1500 l0 -1500 3000 0 3000 0 0 1500 0 1500 -3000 0 -3000 0 0
-1500z m740 540 l0 -150 35 0 35 0 0 150 0 150 110 0 110 0 0 -420 0 -420
-110 0 -110 0 0 175 0 175 -35 0 -35 0 0 -175 0 -175 -110 0 -110 0 0 420 0
420 110 0 110 0 0 -150z m4160 -5 l0 -55 -110 0 -110 0 0 55 0 55 110 0 110 0
0 -55z m-3405 -34 c51 -23 101 -79 114 -128 6 -21 11 -80 11 -130 l0 -93 -135
0 -135 0 0 -98 c0 -100 7 -122 41 -122 23 0 29 20 29 106 l0 74 100 0 100 0 0
-72 c-1 -155 -76 -228 -236 -228 -105 0 -180 39 -222 115 -14 25 -17 63 -17
240 0 198 1 212 22 252 40 73 98 101 213 102 52 0 87 -5 115 -18z m3915 4 c62
-32 65 -49 68 -382 l3 -303 -105 0 -106 0 0 278 c0 152 -4 283 -9 290 -13 21
-44 10 -52 -18 -4 -14 -7 -143 -8 -287 l-1 -263 -105 0 -105 0 0 345 0 345
111 0 112 0 -7 -32 c-5 -31 -5 -32 9 -14 41 54 132 73 195 41z m-940 -355 l0
-340 70 0 70 0 0 -85 0 -85 -180 0 -180 0 0 425 0 425 110 0 110 0 0 -340z
m-2559 53 l34 -237 17 220 c9 120 17 227 17 237 1 15 13 17 96 17 52 0 95 -3
95 -6 0 -3 -18 -152 -41 -332 -46 -374 -54 -401 -121 -432 -34 -16 -66 -20
-155 -20 l-113 0 0 54 c0 54 0 55 33 58 26 2 33 8 35 28 1 14 -25 160 -58 325
-33 164 -60 305 -60 312 0 10 24 13 93 13 l94 0 34 -237z m2989 -113 l0 -350
-110 0 -110 0 0 350 0 350 110 0 110 0 0 -350z m-2040 -205 l0 -425 -110 0
-110 0 0 425 0 425 110 0 110 0 0 -425z m240 329 c0 -36 -5 -97 -12 -135 l-11
-70 -56 3 -55 3 -12 65 c-7 36 -13 95 -13 133 l-1 67 80 0 80 0 0 -66z m474
-64 c21 -10 45 -28 52 -38 13 -19 15 -19 49 13 56 53 133 58 190 13 52 -41 55
-62 55 -383 l0 -295 -100 0 -100 0 0 244 c0 269 -5 332 -28 341 -39 15 -42 -6
-42 -301 l0 -284 -105 0 -105 0 0 284 c0 244 -2 285 -16 296 -12 11 -18 10
-32 -4 -15 -15 -17 -49 -20 -296 l-3 -280 -99 0 -100 0 0 350 0 350 105 0 105
0 0 -26 0 -25 33 24 c53 41 104 46 161 17z m-1214 -410 c0 -111 -38 -177 -114
-196 -23 -5 -26 -3 -26 21 0 14 7 33 15 41 8 9 15 20 15 25 0 5 -7 9 -15 9
-12 0 -15 16 -15 85 l0 85 70 0 70 0 0 -70z"/>
<path d="M1356 1885 c-3 -9 -6 -39 -6 -66 0 -48 1 -49 30 -49 l31 0 -3 63 c-3
54 -6 62 -24 65 -13 2 -24 -4 -28 -13z"/>
</g>
</svg>
